<?xml version="1.0" standalone="no"?>
<!DOCTYPE svg PUBLIC "-//W3C//DTD SVG 20010904//EN"
 "http://www.w3.org/TR/2001/REC-SVG-20010904/DTD/svg10.dtd">
<svg version="1.0" xmlns="http://www.w3.org/2000/svg"
 width="712.000000pt" height="712.000000pt" viewBox="0 0 712.000000 712.000000"
 preserveAspectRatio="xMidYMid meet">
<metadata>
Created by potrace 1.11, written by Peter Selinger 2001-2013
</metadata>
<g transform="translate(0.000000,712.000000) scale(0.100000,-0.100000)"
fill="#000000" stroke="none">
<path d="M3289 6866 c-2 -2 -26 -6 -54 -10 -78 -9 -228 -53 -303 -87 -234
-109 -411 -288 -497 -504 -65 -164 -98 -207 -207 -265 -144 -77 -236 -93 -548
-95 -249 -2 -267 -3 -355 -32 -196 -62 -352 -188 -476 -383 -31 -48 -146 -159
-205 -196 -54 -35 -63 -37 -149 -40 -137 -4 -229 -48 -294 -144 -68 -101 -63
83 -63 -2185 -1 -1577 2 -2068 12 -2130 38 -250 154 -452 299 -522 l56 -27
3075 -1 c1691 0 3095 3 3119 7 109 20 212 104 252 205 l22 58 2 2105 c2 2322
7 2142 -62 2249 -46 71 -200 225 -282 280 -35 24 -93 57 -129 73 -57 26 -79
30 -171 33 l-106 2 -78 47 c-138 81 -232 164 -337 296 -74 92 -138 145 -227
185 -115 53 -226 74 -413 80 -175 6 -241 13 -345 40 -111 28 -167 53 -271 121
-75 50 -134 113 -134 146 0 25 -66 176 -100 229 -106 168 -287 314 -482 389
-138 53 -229 71 -394 76 -82 2 -152 3 -155 0z"/>
</g>
</svg>
