<svg id="Layer_1" data-name="Layer 1" xmlns="http://www.w3.org/2000/svg" viewBox="0 0 116.65 116.65"><defs><style>.cls-1{fill:#fff;stroke:#fff;stroke-miterlimit:10;stroke-width:2px;fill-rule:evenodd;}</style></defs><title>icons</title><path class="cls-1" d="M67.8,74c1.54,1.34,2.74,6.06,2.74,8.23v19.2H48.61s0-6.51,0-11c-15,3.23-19.2-8.23-19.2-8.23A34,34,0,0,0,23.93,74c-5.49-3.26,0-2.74,0-2.74,5.49,0,8.23,5.49,8.23,5.49,4.81,8.18,13.38,6.86,16.46,5.49,0-2.74,1.2-6.89,2.74-8.23-12-1.35-22-8.23-22-21.94s2.75-16.46,5.5-19.2c-0.55-1.35-2.85-6.35.09-13.71,0,0,5.39,0,10.88,8.23,2.72-2.72,11-2.74,13.72-2.74s11,0,13.71,2.74c5.49-8.23,10.89-8.23,10.89-8.23,2.93,7.36.64,12.36,0.09,13.71C87,35.55,89.75,38.29,89.75,52S79.78,72.6,67.8,74Z"/></svg>