<svg id="Layer_1" data-name="Layer 1" xmlns="http://www.w3.org/2000/svg" viewBox="0 0 116.65 116.65"><defs><style>.cls-1{fill:#fff;stroke:#fff;stroke-miterlimit:10;stroke-width:2px;fill-rule:evenodd;}</style></defs><title>icons</title><path class="cls-1" d="M34.11,20.08a7,7,0,0,1,7.14,7.39,7,7,0,0,1-7.42,7,7,7,0,0,1-7.19-7.37C26.69,22.93,29.72,20.05,34.11,20.08ZM41.3,88.29c0,0.92-.31,1.12-1.17,1.12q-5.93-.08-11.85,0c-1,0-1.17-.36-1.17-1.25,0-7.21,0-14.45,0-21.67s0-14.35,0-21.54c0-1.22.38-1.48,1.5-1.45,3.82,0.08,7.65.05,11.47,0,0.92,0,1.25.2,1.25,1.2Q41.26,66.49,41.3,88.29Zm53.88,1.12c-4-.05-8-0.05-12,0-1,0-1.2-.31-1.2-1.22q0-12.23,0-24.47a13.73,13.73,0,0,0-.66-4.64,7.44,7.44,0,0,0-4.66-4.66C70.56,52.09,64.49,56,64.41,62.54c-0.1,8.21,0,16.39,0,24.6,0,2.24,0,2.24-2.32,2.24-3.57,0-7.14,0-10.71,0-0.92,0-1.25-.18-1.25-1.17,0.05-14.66,0-29.31,0-43.94,0-.76.18-1,1-1,4.08,0.05,8.16,0,12.23,0,0.79,0,1,.23,1,1-0.08,1.48,0,3,0,4.51a0.57,0.57,0,0,0,.61-0.38c3.9-5.73,9.48-7.57,16.08-6.75,7.9,1,12.95,6.07,14.68,14.4a27.22,27.22,0,0,1,.56,5.56c0,8.87,0,17.74,0,26.64C96.3,89.13,96.1,89.43,95.18,89.41Z"/></svg>